<?xml version="1.0" encoding="utf-8"?>
<!-- Generator: Adobe Illustrator 16.0.4, SVG Export Plug-In . SVG Version: 6.00 Build 0)  -->
<!DOCTYPE svg PUBLIC "-//W3C//DTD SVG 1.1//EN" "http://www.w3.org/Graphics/SVG/1.1/DTD/svg11.dtd">
<svg version="1.1" id="Layer_9" xmlns="http://www.w3.org/2000/svg" xmlns:xlink="http://www.w3.org/1999/xlink" x="0px" y="0px"
	 width="130px" height="130px" viewBox="0 0 130 130" enable-background="new 0 0 130 130" xml:space="preserve">
<g>
	<g>
		<path fill="#FFCEAA" d="M110.177,76.106c0.269-3.43,0.175-9.449,0.065-12.912c-0.473-14.626-16.799-23.817-30.135-21.986
			c-7.614,1.062-12.299,4.943-17.267,9.057c-6.68,5.539-12.764,8.697-21.007,10.926c-8.807,2.377-24.253,3.467-24.384,15.359
			c-0.029,2.828,0.029,3.165,0,6.026c-0.055,4.986,3.238,8.816,7.327,11.325c13.75,8.425,39.031,10.322,54.163,7.777
			C91.448,99.575,109.028,90.623,110.177,76.106L110.177,76.106z"/>
		<path fill="#FFFFFF" d="M105.332,78.877c8.813-11.998,5.364-28.492-6.942-36.28c-5.423-3.438-11.942-4.783-18.282-3.911
			c-7.614,1.058-12.299,4.939-17.263,9.054c-6.684,5.539-12.768,8.697-21.011,10.925c-8.807,2.377-24.253,5.993-24.384,17.886
			c-0.051,4.983,3.238,8.813,7.327,11.317c3.674,2.254,8.516,3.915,13.938,5.061c12.626,2.659,28.528,2.543,40.224,0.573
			C89.071,91.802,99.073,87.389,105.332,78.877L105.332,78.877z"/>
		<path fill-rule="evenodd" clip-rule="evenodd" fill="#C0392B" d="M80.409,91.009c15.64-3.401,31.076-18.413,25.979-34.048
			c-3.391-10.395-14.108-17.609-25.979-16.446C66.565,41.874,62.677,53.05,49.28,57.898c-8.636,3.125-27.096,5.256-29.393,16.145
			C15.755,93.659,62.146,94.978,80.409,91.009L80.409,91.009z"/>
		<path fill-rule="evenodd" clip-rule="evenodd" fill="#FFFFFF" d="M81.18,58.204c-2.947,3.292-7.039,5.583-8.22,9.705
			c-0.848,2.958,1.903,5.912,2.932,8.737c-2.162-2.093-3.613-5.735-6.829-6.427c-5.775-1.246-11.456,0.651-17.354,1.207
			c4.979-1.741,11.638-2.943,17.05-5.371C73.322,64.004,77.062,60.61,81.18,58.204L81.18,58.204z"/>
	</g>
</g>
<path fill-rule="evenodd" clip-rule="evenodd" fill="none" stroke="#351911" stroke-width="1.3" stroke-linejoin="round" stroke-miterlimit="10" d="
	M110.242,63.194c-0.002-0.047-0.008-0.093-0.01-0.14c-0.306-8.049-4.493-15.806-11.843-20.458
	c-5.423-3.438-11.942-4.783-18.282-3.911c-7.614,1.058-12.299,4.939-17.263,9.054c-6.684,5.539-12.768,8.697-21.011,10.925
	c-8.807,2.377-24.253,5.993-24.384,17.886c-0.029,2.828,0.029,3.165,0,6.026c-0.055,4.986,3.238,8.816,7.327,11.325
	c13.75,8.425,39.031,10.322,54.163,7.777c12.51-2.104,30.09-11.057,31.238-25.573C110.445,72.677,110.352,66.657,110.242,63.194z"/>
</svg>
